<svg xmlns="http://www.w3.org/2000/svg" viewBox="0 0 76.53 100.52"><defs><style>.cls-1{fill:#00a2bd;}.cls-2{fill:#0062bd;}.cls-3{fill:#ef5044;}</style></defs><g id="Layer_2" data-name="Layer 2"><g id="Layer_1-2" data-name="Layer 1"><path class="cls-1" d="M58.16,43.73a20.2,20.2,0,0,1-2.43,5.56h0a20.63,20.63,0,0,1-34.93,0,20.2,20.2,0,0,1-2.43-5.56C20.45,44,20.61,45.8,23,45.8c2.55,0,2.55-2.1,5.1-2.1s2.54,2.1,5.09,2.1,2.55-2.1,5.09-2.1,2.55,2.1,5.1,2.1,2.54-2.1,5.09-2.1,2.55,2.1,5.09,2.1C55.92,45.8,56.08,44,58.16,43.73Z"/><path class="cls-2" d="M20.8,49.29A3.31,3.31,0,0,0,23,50c2.55,0,2.55-2.09,5.1-2.09S30.62,50,33.17,50,35.72,48,38.26,48,40.81,50,43.36,50,45.9,48,48.45,48,51,50,53.54,50a3.31,3.31,0,0,0,2.19-.75,20.63,20.63,0,0,1-34.93,0Z"/><path class="cls-3" d="M74.66,26.15a37.31,37.31,0,0,0-23.56-24l-.7-.23A41.61,41.61,0,0,0,38.26,0,41.59,41.59,0,0,0,26.13,1.88L25.67,2A37.27,37.27,0,0,0,1.86,26.15,41.58,41.58,0,0,0,.24,34a38.55,38.55,0,0,0,0,8.59,38.12,38.12,0,0,0,7.4,18.71l18,23.11,12.59,16.15L51.1,84.07,68.89,61.26A38.75,38.75,0,0,0,74.66,26.15ZM51.1,54.4a20.58,20.58,0,1,1,7.78-16.12A20.53,20.53,0,0,1,51.1,54.4Z"/></g></g></svg>